<?xml version="1.0" standalone="no"?>
<!DOCTYPE svg PUBLIC "-//W3C//DTD SVG 20010904//EN"
 "http://www.w3.org/TR/2001/REC-SVG-20010904/DTD/svg10.dtd">
<svg version="1.0" xmlns="http://www.w3.org/2000/svg"
 width="512.000000pt" height="512.000000pt" viewBox="0 0 512.000000 512.000000"
 preserveAspectRatio="xMidYMid meet">
<metadata>
Created by potrace 1.14, written by Peter Selinger 2001-2017
</metadata>
<g transform="translate(0.000000,512.000000) scale(0.100000,-0.100000)"
fill="#000000" stroke="none">
<path d="M5110 994 c0 -14 -4 -23 -10 -19 -12 7 -42 -20 -33 -29 4 -3 -2 -13
-13 -22 -10 -8 -13 -13 -6 -9 6 3 12 1 12 -5 0 -6 -11 -16 -25 -22 -14 -6 -25
-17 -25 -25 0 -7 -7 -16 -16 -20 -13 -5 -13 -7 -2 -14 10 -7 9 -9 -4 -9 -11 0
-15 -5 -12 -14 4 -11 0 -13 -18 -9 -23 5 -23 5 -3 -10 18 -15 18 -16 3 -17
-11 0 -18 -8 -18 -19 0 -22 -23 -44 -35 -33 -4 4 -5 -3 -2 -16 5 -20 3 -22
-11 -10 -10 8 -13 9 -9 1 4 -7 0 -16 -10 -22 -10 -6 -13 -11 -8 -11 6 0 3 -5
-5 -10 -8 -5 -16 -18 -16 -30 -3 -45 -4 -50 -12 -50 -5 0 -9 7 -9 15 0 8 5 15
10 15 6 0 7 3 4 7 -4 3 -16 -3 -27 -14 -14 -15 -16 -23 -7 -26 7 -3 4 -6 -6
-6 -9 -1 -16 -4 -16 -8 3 -20 -2 -34 -11 -28 -5 3 -10 -1 -10 -10 0 -9 -4 -14
-9 -10 -5 3 -12 1 -15 -4 -4 -5 -2 -12 4 -16 5 -3 10 -12 10 -18 0 -8 -3 -8
-9 2 -6 9 -11 10 -15 2 -4 -6 -5 -11 -1 -11 3 0 1 -10 -6 -21 -8 -16 -13 -18
-19 -9 -5 8 -10 9 -14 2 -4 -6 5 -17 20 -25 24 -13 29 -12 45 4 11 11 19 26
19 34 0 21 47 68 60 60 13 -8 13 8 0 21 -6 6 -5 15 1 24 9 13 10 12 5 -2 -6
-21 0 -23 18 -5 7 7 11 18 8 25 -2 6 1 12 7 12 6 0 11 9 11 20 0 11 5 20 11
20 5 0 7 -6 3 -12 -4 -7 2 -4 13 7 16 16 17 21 6 25 -11 5 -11 9 2 25 15 20
15 20 9 0 -6 -18 -4 -17 10 3 10 12 22 19 28 16 7 -5 9 -1 5 9 -4 11 -1 17 8
17 8 0 14 3 14 8 -4 26 3 52 15 52 8 0 18 5 22 12 4 7 3 8 -4 4 -7 -4 -12 -2
-12 3 0 6 5 11 10 11 6 0 10 5 10 11 0 5 -6 7 -12 3 -10 -6 -9 -3 0 8 8 10 21
14 30 11 9 -3 14 -3 10 2 -4 4 4 16 17 27 14 11 25 26 25 34 0 8 3 13 8 10 4
-2 9 22 10 55 2 32 1 59 -2 59 -3 0 -6 -12 -6 -26z m-37 -125 c-8 -8 -13 -7
-18 2 -5 8 -4 10 3 5 7 -4 12 -2 12 5 0 7 3 9 7 6 4 -4 2 -12 -4 -18z"/>
<path d="M5105 462 c3 -19 2 -31 -4 -28 -5 3 -12 -1 -15 -10 -8 -21 -8 -22 7
-27 6 -2 -1 -2 -17 1 -18 2 -26 0 -22 -6 3 -6 0 -13 -6 -16 -7 -4 -3 -4 10 -2
18 3 21 2 13 -8 -6 -7 -23 -12 -39 -10 -15 2 -19 1 -9 -2 9 -3 17 -10 17 -15
0 -6 -4 -7 -10 -4 -6 3 -7 -1 -4 -9 3 -9 11 -13 17 -9 6 3 7 1 3 -6 -4 -6 -12
-9 -17 -5 -14 8 -38 -26 -34 -48 2 -10 0 -16 -5 -13 -5 3 -7 15 -5 26 3 13 0
19 -8 16 -7 -2 -12 -12 -12 -23 0 -10 -4 -25 -8 -31 -5 -7 -5 -13 -2 -13 4 0
-10 -16 -30 -35 -20 -20 -41 -49 -47 -65 -6 -17 -15 -27 -21 -23 -7 4 -8 0 -4
-11 6 -14 3 -16 -16 -11 -13 4 -17 3 -10 -2 17 -12 12 -50 -5 -49 -8 1 -17 -5
-19 -11 -4 -10 32 -13 157 -13 l161 0 -2 234 c-1 128 -5 240 -10 247 -6 9 -7
2 -4 -19z m-58 -178 c-3 -3 -12 -4 -19 -1 -8 3 -5 6 6 6 11 1 17 -2 13 -5z
m-123 -159 c-3 -6 -11 -12 -18 -12 -8 0 -12 6 -10 12 3 6 11 12 18 12 8 0 12
-6 10 -12z"/>
<path d="M4788 453 c7 -3 16 -2 19 1 4 3 -2 6 -13 5 -11 0 -14 -3 -6 -6z"/>
<path d="M4665 400 c-3 -5 -1 -10 4 -10 6 0 11 5 11 10 0 6 -2 10 -4 10 -3 0
-8 -4 -11 -10z"/>
<path d="M4753 403 c9 -15 -16 -23 -34 -12 -21 13 -27 11 -41 -13 -7 -13 -21
-23 -30 -23 -10 0 -19 -4 -20 -10 0 -5 -8 -16 -17 -23 -9 -8 -11 -11 -4 -8 6
4 14 2 18 -4 3 -5 1 -10 -5 -10 -6 0 -9 -3 -6 -8 6 -10 -16 -36 -34 -40 -9 -1
-5 5 8 16 13 10 20 21 16 24 -3 4 -16 -5 -29 -20 -21 -24 -21 -28 -6 -40 9 -7
10 -11 4 -7 -12 6 -18 -7 -14 -29 1 -5 -5 -6 -14 -3 -11 5 -15 0 -15 -18 0
-13 -4 -27 -10 -30 -6 -4 -7 1 -3 11 5 13 0 11 -20 -6 -17 -15 -24 -29 -21
-45 5 -26 -10 -42 -22 -24 -15 25 -22 -16 -8 -45 l15 -31 -21 25 -22 25 5 -23
c5 -19 3 -21 -9 -11 -12 10 -13 9 -8 -5 9 -22 56 -20 85 4 13 10 18 19 12 20
-7 0 -13 -4 -13 -10 0 -5 -7 -7 -16 -3 -14 5 -14 7 3 17 11 6 18 16 16 23 -3
7 4 9 19 5 21 -5 22 -4 9 12 -12 15 -12 19 8 32 12 9 19 20 16 25 -3 5 1 6 10
3 11 -4 14 -2 10 9 -4 10 3 18 24 25 17 6 31 17 31 24 0 10 -2 10 -9 -1 -5 -8
-11 -9 -15 -3 -3 5 1 13 10 16 9 3 12 11 8 18 -5 9 -2 8 10 -1 15 -13 17 -12
12 12 -5 29 3 34 23 15 10 -11 11 -10 5 5 -3 9 -1 23 5 31 6 7 9 15 6 18 -3 3
1 11 10 18 13 11 15 10 9 -6 -5 -18 -5 -18 6 0 10 15 9 20 -1 27 -11 7 -11 9
-1 9 7 0 10 5 7 10 -8 12 8 13 21 1 5 -5 16 -2 27 9 14 13 15 20 6 26 -7 4
-10 3 -6 -3z m-98 -63 c3 -5 2 -10 -4 -10 -5 0 -13 5 -16 10 -3 6 -2 10 4 10
5 0 13 -4 16 -10z m-155 -210 c0 -5 -5 -10 -11 -10 -5 0 -7 5 -4 10 3 6 8 10
11 10 2 0 4 -4 4 -10z"/>
<path d="M4985 300 c3 -5 8 -10 11 -10 2 0 4 5 4 10 0 6 -5 10 -11 10 -5 0 -7
-4 -4 -10z"/>
<path d="M4890 206 c0 -2 7 -7 16 -10 8 -3 12 -2 9 4 -6 10 -25 14 -25 6z"/>
<path d="M4850 120 c-9 -6 -10 -10 -3 -10 6 0 15 5 18 10 8 12 4 12 -15 0z"/>
<path d="M4529 103 c-13 -15 -12 -15 9 -4 23 12 28 21 13 21 -5 0 -15 -7 -22
-17z"/>
</g>
</svg>
